REM DIRINDEX 1\2,1\3,1\4,1\5\6,1\5\7,1\8
REM DIRNAME cjc115,folder01,folder02,folder03,folder04,folder05,folder06,folder07
TITLE ""
FILE "103 【103】Unit6 (1165 warehouse_1176 rally).mp3" MP3
  TRACK 01 AUDIO
    TITLE "0:"
    INDEX 01 00:00:00
  TRACK 02 AUDIO
    TITLE "2:cjc115_4018"
    INDEX 01 00:00:07
  TRACK 03 AUDIO
    TITLE "0:"
    INDEX 01 00:01:34
  TRACK 04 AUDIO
    TITLE "3:cjc115_4019"
    INDEX 01 00:01:42
  TRACK 05 AUDIO
    TITLE "0:"
    INDEX 01 00:02:55
  TRACK 06 AUDIO
    TITLE "4:cjc115_4020"
    INDEX 01 00:02:65
  TRACK 07 AUDIO
    TITLE "0:"
    INDEX 01 00:05:69
  TRACK 08 AUDIO
    TITLE "2:cjc115_4021"
    INDEX 01 00:07:03
  TRACK 09 AUDIO
    TITLE "0:"
    INDEX 01 00:08:32
  TRACK 10 AUDIO
    TITLE "3:cjc115_4022"
    INDEX 01 00:08:34
  TRACK 11 AUDIO
    TITLE "0:"
    INDEX 01 00:09:73
  TRACK 12 AUDIO
    TITLE "4:cjc115_4023"
    INDEX 01 00:10:06
  TRACK 13 AUDIO
    TITLE "0:"
    INDEX 01 00:15:17
  TRACK 14 AUDIO
    TITLE "2:cjc115_4024"
    INDEX 01 00:16:24
  TRACK 15 AUDIO
    TITLE "0:"
    INDEX 01 00:17:23
  TRACK 16 AUDIO
    TITLE "3:cjc115_4025"
    INDEX 01 00:17:27
  TRACK 17 AUDIO
    TITLE "0:"
    INDEX 01 00:18:23
  TRACK 18 AUDIO
    TITLE "4:cjc115_4026"
    INDEX 01 00:18:33
  TRACK 19 AUDIO
    TITLE "0:"
    INDEX 01 00:22:68
  TRACK 20 AUDIO
    TITLE "2:cjc115_4027"
    INDEX 01 00:24:00
  TRACK 21 AUDIO
    TITLE "0:"
    INDEX 01 00:25:23
  TRACK 22 AUDIO
    TITLE "3:cjc115_4028"
    INDEX 01 00:25:33
  TRACK 23 AUDIO
    TITLE "0:"
    INDEX 01 00:27:59
  TRACK 24 AUDIO
    TITLE "4:cjc115_4029"
    INDEX 01 00:27:63
  TRACK 25 AUDIO
    TITLE "0:"
    INDEX 01 00:32:00
  TRACK 26 AUDIO
    TITLE "2:cjc115_4030"
    INDEX 01 00:33:09
  TRACK 27 AUDIO
    TITLE "0:"
    INDEX 01 00:34:26
  TRACK 28 AUDIO
    TITLE "3:cjc115_4031"
    INDEX 01 00:34:34
  TRACK 29 AUDIO
    TITLE "0:"
    INDEX 01 00:35:41
  TRACK 30 AUDIO
    TITLE "4:cjc115_4032"
    INDEX 01 00:35:53
  TRACK 31 AUDIO
    TITLE "0:"
    INDEX 01 00:38:49
  TRACK 32 AUDIO
    TITLE "2:cjc115_4033"
    INDEX 01 00:39:58
  TRACK 33 AUDIO
    TITLE "0:"
    INDEX 01 00:41:14
  TRACK 34 AUDIO
    TITLE "3:cjc115_4034"
    INDEX 01 00:41:24
  TRACK 35 AUDIO
    TITLE "0:"
    INDEX 01 00:43:50
  TRACK 36 AUDIO
    TITLE "4:cjc115_4035"
    INDEX 01 00:43:54
  TRACK 37 AUDIO
    TITLE "0:"
    INDEX 01 00:48:51
  TRACK 38 AUDIO
    TITLE "2:cjc115_4036"
    INDEX 01 00:49:57
  TRACK 39 AUDIO
    TITLE "0:"
    INDEX 01 00:50:74
  TRACK 40 AUDIO
    TITLE "3:cjc115_4037"
    INDEX 01 00:51:09
  TRACK 41 AUDIO
    TITLE "0:"
    INDEX 01 00:53:08
  TRACK 42 AUDIO
    TITLE "4:cjc115_4038"
    INDEX 01 00:53:17
  TRACK 43 AUDIO
    TITLE "0:"
    INDEX 01 00:57:01
  TRACK 44 AUDIO
    TITLE "2:cjc115_4039"
    INDEX 01 00:58:09
  TRACK 45 AUDIO
    TITLE "0:"
    INDEX 01 00:59:28
  TRACK 46 AUDIO
    TITLE "3:cjc115_4040"
    INDEX 01 00:59:38
  TRACK 47 AUDIO
    TITLE "0:"
    INDEX 01 01:02:26
  TRACK 48 AUDIO
    TITLE "4:cjc115_4041"
    INDEX 01 01:02:36
  TRACK 49 AUDIO
    TITLE "0:"
    INDEX 01 01:06:57
  TRACK 50 AUDIO
    TITLE "2:cjc115_4042"
    INDEX 01 01:07:64
  TRACK 51 AUDIO
    TITLE "0:"
    INDEX 01 01:09:03
  TRACK 52 AUDIO
    TITLE "3:cjc115_4043"
    INDEX 01 01:09:05
  TRACK 53 AUDIO
    TITLE "0:"
    INDEX 01 01:11:51
  TRACK 54 AUDIO
    TITLE "4:cjc115_4044"
    INDEX 01 01:11:52
  TRACK 55 AUDIO
    TITLE "0:"
    INDEX 01 01:15:07
  TRACK 56 AUDIO
    TITLE "2:cjc115_4045"
    INDEX 01 01:16:14
  TRACK 57 AUDIO
    TITLE "0:"
    INDEX 01 01:17:20
  TRACK 58 AUDIO
    TITLE "3:cjc115_4046"
    INDEX 01 01:17:30
  TRACK 59 AUDIO
    TITLE "0:"
    INDEX 01 01:18:47
  TRACK 60 AUDIO
    TITLE "4:cjc115_4047"
    INDEX 01 01:18:53
  TRACK 61 AUDIO
    TITLE "0:"
    INDEX 01 01:22:64
  TRACK 62 AUDIO
    TITLE "2:cjc115_4048"
    INDEX 01 01:24:06
  TRACK 63 AUDIO
    TITLE "0:"
    INDEX 01 01:25:23
  TRACK 64 AUDIO
    TITLE "3:cjc115_4049"
    INDEX 01 01:25:31
  TRACK 65 AUDIO
    TITLE "0:"
    INDEX 01 01:26:50
  TRACK 66 AUDIO
    TITLE "4:cjc115_4050"
    INDEX 01 01:26:60
  TRACK 67 AUDIO
    TITLE "0:"
    INDEX 01 01:31:38
  TRACK 68 AUDIO
    TITLE "2:cjc115_4051"
    INDEX 01 01:32:47
  TRACK 69 AUDIO
    TITLE "0:"
    INDEX 01 01:33:50
  TRACK 70 AUDIO
    TITLE "3:cjc115_4052"
    INDEX 01 01:33:60
  TRACK 71 AUDIO
    TITLE "0:"
    INDEX 01 01:35:43
  TRACK 72 AUDIO
    TITLE "4:cjc115_4053"
    INDEX 01 01:35:53
  TRACK 73 AUDIO
    TITLE "0:"
    INDEX 01 01:39:35
